# xmcd
#
# Track frame offsets: 
#        187
#        32097
#        57992
#        87515
#        124602
#        147562
#        176607
#
# Disc length: 2754 seconds
#
# Revision: 5
# Processed by: cddbd v1.5.2PL0 Copyright (c) Steve Scherf et al.
# Submitted via: ExactAudioCopyFreeDBPlugin 1.0
#
DISCID=610ac007
DTITLE=Bill Evans [piano] - Interplay
DYEAR=1962
DGENRE=Jazz
TTITLE0=You And The Night And The Music
TTITLE1=When You Wish Upon A Star
TTITLE2=I'll Never Smile Again
TTITLE3=Interplay
TTITLE4=You Go To My Head
TTITLE5=Wrap Your Troubles In Dreams
TTITLE6=I'll Never Smile Again [alternate take]
EXTD=
EXTT0=
EXTT1=
EXTT2=
EXTT3=
EXTT4=
EXTT5=
EXTT6=
PLAYORDER=
